STARTFONT 2.1
FONT -HP-HP User-Bold-R-Normal-Serif-12-120-72-72-P-77-ISO8859-1
SIZE 12 72 72
FONTBOUNDINGBOX 12 16 0 -4

STARTPROPERTIES 27
COPYRIGHT "(c) Copyright 1994, Hewlett Packard Company"
NOTICE "Created by the User Interaction Design Group, July 1994."
NOTICE "Hewlett Packard Company, 3000 Hanover St., Palo Alto, CA 94303, USA"
FONTNAME_REGISTRY ""
FOUNDRY "HP"
FAMILY_NAME "HP User"
WEIGHT_NAME "Bold"
SLANT "R"
ADD_STYLE_NAME "Serif"
SETWIDTH_NAME "Normal"
PIXEL_SIZE 12
POINT_SIZE 120
RESOLUTION_X 72
RESOLUTION_Y 72
SPACING "P"
AVERAGE_WIDTH 77
CHARSET_REGISTRY "ISO8859"
CHARSET_ENCODING "1"
CHARSET_COLLECTIONS "ISO8859-1"
FULL_NAME "HP User16B"
CAP_HEIGHT 9
X_HEIGHT 6
WEIGHT 10
QUAD_WIDTH 7
DEFAULT_CHAR 32
FONT_DESCENT 4
FONT_ASCENT 12
ENDPROPERTIES

CHARS 223

STARTCHAR Null
ENCODING 0
SWIDTH 666 0
DWIDTH 8 0
BBX 7 16 1 -4
BITMAP
88
C8
A8
98
88
22
22
22
22
1C
00
10
10
10
10
1E
ENDCHAR

STARTCHAR StartOfHeading
ENCODING 1
SWIDTH 666 0
DWIDTH 8 0
BBX 7 16 1 -4
BITMAP
70
80
60
10
E0
1C
22
22
22
1C
00
12
12
1E
12
12
ENDCHAR

STARTCHAR StartOfText
ENCODING 2
SWIDTH 666 0
DWIDTH 8 0
BBX 7 16 1 -4
BITMAP
78
80
70
08
F0
00
7C
10
10
10
10
22
14
08
14
22
ENDCHAR

STARTCHAR EndOfText
ENCODING 3
SWIDTH 666 0
DWIDTH 8 0
BBX 7 16 1 -4
BITMAP
F0
80
E0
80
F0
00
7C
10
10
10
10
22
14
08
14
22
ENDCHAR

STARTCHAR EndOfTransmit
ENCODING 4
SWIDTH 666 0
DWIDTH 8 0
BBX 7 16 1 -4
BITMAP
F0
80
E0
80
F0
00
38
44
44
38
00
3E
08
08
08
08
ENDCHAR

STARTCHAR Enquiry
ENCODING 5
SWIDTH 666 0
DWIDTH 8 0
BBX 7 16 1 -4
BITMAP
F0
80
E0
80
F0
00
48
68
58
48
00
1C
22
2A
24
1A
ENDCHAR

STARTCHAR Acknowledge
ENCODING 6
SWIDTH 666 0
DWIDTH 8 0
BBX 6 16 1 -4
BITMAP
60
90
F0
90
90
00
30
48
40
48
30
24
28
30
28
24
ENDCHAR

STARTCHAR Bell
ENCODING 7
SWIDTH 666 0
DWIDTH 8 0
BBX 7 16 1 -4
BITMAP
00
00
00
10
38
5C
4C
4C
4C
8E
86
FE
08
0C
00
00
ENDCHAR

STARTCHAR BackSpace
ENCODING 8
SWIDTH 666 0
DWIDTH 8 0
BBX 7 16 1 -4
BITMAP
00
00
F0
48
70
48
F0
00
0E
10
0C
02
1C
00
00
00
ENDCHAR

STARTCHAR HorizontalTab
ENCODING 9
SWIDTH 666 0
DWIDTH 8 0
BBX 7 16 1 -4
BITMAP
00
00
90
90
F0
90
90
00
3E
08
08
08
08
00
00
00
ENDCHAR

STARTCHAR LineFeed
ENCODING 10
SWIDTH 666 0
DWIDTH 8 0
BBX 7 16 1 -4
BITMAP
00
00
80
80
80
80
F0
00
1E
10
1C
10
10
00
00
00
ENDCHAR

STARTCHAR VerticalTab
ENCODING 11
SWIDTH 666 0
DWIDTH 8 0
BBX 7 16 1 -4
BITMAP
00
88
88
50
50
20
20
00
3E
08
08
08
08
00
00
00
ENDCHAR

STARTCHAR FormFeed
ENCODING 12
SWIDTH 666 0
DWIDTH 8 0
BBX 7 16 1 -4
BITMAP
00
00
F0
80
E0
80
80
00
1E
10
1C
10
10
00
00
00
ENDCHAR

STARTCHAR CarriageReturn
ENCODING 13
SWIDTH 666 0
DWIDTH 8 0
BBX 7 16 1 -4
BITMAP
00
60
90
80
80
90
60
00
1C
12
1C
12
12
00
00
00
ENDCHAR

STARTCHAR ShiftOut
ENCODING 14
SWIDTH 666 0
DWIDTH 8 0
BBX 7 16 1 -4
BITMAP
00
00
70
80
60
10
E0
00
0C
12
12
12
0C
00
00
00
ENDCHAR

STARTCHAR ShiftIn
ENCODING 15
SWIDTH 666 0
DWIDTH 8 0
BBX 6 16 1 -4
BITMAP
00
00
70
80
60
10
E0
00
1C
08
08
08
1C
00
00
00
ENDCHAR

STARTCHAR DataLinkEscape
ENCODING 16
SWIDTH 666 0
DWIDTH 8 0
BBX 6 16 1 -4
BITMAP
F0
48
48
48
F0
00
20
20
20
38
00
1C
10
18
10
1C
ENDCHAR

STARTCHAR DevCtrl1orXon
ENCODING 17
SWIDTH 666 0
DWIDTH 8 0
BBX 7 16 1 -4
BITMAP
F0
48
48
48
F0
00
70
88
80
88
70
04
0C
04
04
0E
ENDCHAR

STARTCHAR DeviceControl2
ENCODING 18
SWIDTH 666 0
DWIDTH 8 0
BBX 7 16 1 -4
BITMAP
F0
48
48
48
48
F0
38
44
40
44
38
0C
12
04
08
1E
ENDCHAR

STARTCHAR DevCtrl3orXoff
ENCODING 19
SWIDTH 666 0
DWIDTH 8 0
BBX 7 16 1 -4
BITMAP
F0
48
48
48
F0
00
70
88
80
88
70
1C
22
0C
22
1C
ENDCHAR

STARTCHAR DeviceControl4
ENCODING 20
SWIDTH 666 0
DWIDTH 8 0
BBX 7 16 1 -4
BITMAP
F0
48
48
48
F0
00
70
88
80
88
74
0C
14
24
3E
04
ENDCHAR

STARTCHAR NegAcknowledge
ENCODING 21
SWIDTH 666 0
DWIDTH 8 0
BBX 7 16 1 -4
BITMAP
88
C8
A8
98
88
00
38
44
7C
44
44
12
14
18
14
12
ENDCHAR

STARTCHAR SynchronusIdle
ENCODING 22
SWIDTH 666 0
DWIDTH 8 0
BBX 7 16 1 -4
BITMAP
78
80
70
08
F0
00
44
28
10
10
10
22
32
2A
26
22
ENDCHAR

STARTCHAR EndTransmit
ENCODING 23
SWIDTH 666 0
DWIDTH 8 0
BBX 7 16 1 -4
BITMAP
F8
80
F0
80
F8
00
7C
10
10
10
00
3C
12
1C
12
3C
ENDCHAR

STARTCHAR Cancel
ENCODING 24
SWIDTH 666 0
DWIDTH 8 0
BBX 7 16 1 -4
BITMAP
70
88
80
88
70
00
38
44
7C
44
44
22
32
2A
26
22
ENDCHAR

STARTCHAR EndOfMedium
ENCODING 25
SWIDTH 666 0
DWIDTH 8 0
BBX 7 16 1 -4
BITMAP
00
00
F0
80
E0
80
F0
00
22
36
2A
22
22
00
00
00
ENDCHAR

STARTCHAR Substitute
ENCODING 26
SWIDTH 666 0
DWIDTH 8 0
BBX 6 16 1 -4
BITMAP
70
80
60
10
E0
00
48
48
48
30
00
78
24
38
24
78
ENDCHAR

STARTCHAR Escape
ENCODING 27
SWIDTH 666 0
DWIDTH 8 0
BBX 7 16 1 -4
BITMAP
F0
80
E0
80
F0
00
38
40
30
08
70
0C
12
10
12
0C
ENDCHAR

STARTCHAR FileSeparator
ENCODING 28
SWIDTH 666 0
DWIDTH 8 0
BBX 7 16 1 -4
BITMAP
00
00
F0
80
E0
80
80
00
0C
12
10
0C
02
12
0C
00
ENDCHAR

STARTCHAR GroupSeparator
ENCODING 29
SWIDTH 666 0
DWIDTH 8 0
BBX 7 16 1 -4
BITMAP
00
70
90
80
B0
90
60
00
0C
12
10
0C
02
12
0C
00
ENDCHAR

STARTCHAR RecordSeparatr
ENCODING 30
SWIDTH 666 0
DWIDTH 8 0
BBX 7 16 1 -4
BITMAP
00
E0
90
90
E0
90
90
00
0C
12
10
0C
02
12
0C
00
ENDCHAR

STARTCHAR UnitSeparator
ENCODING 31
SWIDTH 666 0
DWIDTH 8 0
BBX 7 16 1 -4
BITMAP
00
00
90
90
90
90
60
00
0C
12
10
0C
02
12
0C
00
ENDCHAR

STARTCHAR PrintableSpace
ENCODING 32
SWIDTH 500 0
DWIDTH 6 0
BBX 6 16 0 -4
BITMAP
00
00
00
00
00
00
00
00
00
00
00
00
00
00
00
00
ENDCHAR

STARTCHAR Exclamation
ENCODING 33
SWIDTH 416 0
DWIDTH 5 0
BBX 2 16 2 -4
BITMAP
00
00
C0
C0
C0
C0
C0
C0
C0
00
00
C0
C0
00
00
00
ENDCHAR

STARTCHAR NeutrlDblQuote
ENCODING 34
SWIDTH 583 0
DWIDTH 7 0
BBX 5 16 1 -4
BITMAP
00
00
D8
D8
D8
90
90
00
00
00
00
00
00
00
00
00
ENDCHAR

STARTCHAR NumberSign
ENCODING 35
SWIDTH 666 0
DWIDTH 8 0
BBX 7 16 1 -4
BITMAP
00
00
6C
6C
6C
FE
6C
6C
6C
FE
6C
6C
6C
00
00
00
ENDCHAR

STARTCHAR DollarSign
ENCODING 36
SWIDTH 666 0
DWIDTH 8 0
BBX 5 16 2 -4
BITMAP
00
20
20
78
88
C0
E0
70
38
18
88
F0
20
20
00
00
ENDCHAR

STARTCHAR PerCentSign
ENCODING 37
SWIDTH 666 0
DWIDTH 8 0
BBX 8 16 0 -4
BITMAP
00
02
62
D6
D4
6C
08
18
10
36
2B
6B
46
00
00
00
ENDCHAR

STARTCHAR Ampersand
ENCODING 38
SWIDTH 666 0
DWIDTH 8 0
BBX 7 16 1 -4
BITMAP
00
00
70
C8
C8
C8
78
70
72
DA
CC
CC
72
00
00
00
ENDCHAR

STARTCHAR SingleCloseQut
ENCODING 39
SWIDTH 416 0
DWIDTH 5 0
BBX 3 16 1 -4
BITMAP
00
00
60
60
60
C0
80
00
00
00
00
00
00
00
00
00
ENDCHAR

STARTCHAR OpenParen
ENCODING 40
SWIDTH 500 0
DWIDTH 6 0
BBX 5 16 1 -4
BITMAP
00
18
30
60
60
E0
E0
E0
E0
E0
60
60
30
18
00
00
ENDCHAR

STARTCHAR CloseParen
ENCODING 41
SWIDTH 500 0
DWIDTH 6 0
BBX 5 16 1 -4
BITMAP
00
C0
60
30
30
38
38
38
38
38
30
30
60
C0
00
00
ENDCHAR

STARTCHAR Asterisk
ENCODING 42
SWIDTH 666 0
DWIDTH 8 0
BBX 7 16 1 -4
BITMAP
00
00
00
00
10
D6
D6
38
D6
D6
10
00
00
00
00
00
ENDCHAR

STARTCHAR PlusSign
ENCODING 43
SWIDTH 666 0
DWIDTH 8 0
BBX 6 16 1 -4
BITMAP
00
00
00
00
30
30
FC
FC
30
30
00
00
00
00
00
00
ENDCHAR

STARTCHAR Comma
ENCODING 44
SWIDTH 333 0
DWIDTH 4 0
BBX 3 16 0 -4
BITMAP
00
00
00
00
00
00
00
00
00
00
60
60
60
C0
80
00
ENDCHAR

STARTCHAR Hyphen
ENCODING 45
SWIDTH 666 0
DWIDTH 8 0
BBX 7 16 1 -4
BITMAP
00
00
00
00
00
00
FE
FE
00
00
00
00
00
00
00
00
ENDCHAR

STARTCHAR Period
ENCODING 46
SWIDTH 333 0
DWIDTH 4 0
BBX 2 16 1 -4
BITMAP
00
00
00
00
00
00
00
00
00
00
C0
C0
00
00
00
00
ENDCHAR

STARTCHAR Slash
ENCODING 47
SWIDTH 666 0
DWIDTH 8 0
BBX 7 16 1 -4
BITMAP
00
02
06
04
0C
08
18
10
30
20
60
40
C0
80
00
00
ENDCHAR

STARTCHAR Zero
ENCODING 48
SWIDTH 583 0
DWIDTH 7 0
BBX 6 16 1 -4
BITMAP
00
00
00
78
CC
84
A4
A4
84
84
CC
78
00
00
00
00
ENDCHAR

STARTCHAR One
ENCODING 49
SWIDTH 583 0
DWIDTH 7 0
BBX 4 16 2 -4
BITMAP
00
00
00
30
70
B0
30
30
30
30
30
30
00
00
00
00
ENDCHAR

STARTCHAR Two
ENCODING 50
SWIDTH 583 0
DWIDTH 7 0
BBX 6 16 1 -4
BITMAP
00
00
00
78
CC
CC
0C
18
70
C0
C4
FC
00
00
00
00
ENDCHAR

STARTCHAR Three
ENCODING 51
SWIDTH 583 0
DWIDTH 7 0
BBX 6 16 1 -4
BITMAP
00
00
00
78
8C
0C
18
38
0C
0C
CC
78
00
00
00
00
ENDCHAR

STARTCHAR Four
ENCODING 52
SWIDTH 583 0
DWIDTH 7 0
BBX 6 16 1 -4
BITMAP
00
00
10
10
30
20
68
58
D8
FC
18
18
00
00
00
00
ENDCHAR

STARTCHAR Five
ENCODING 53
SWIDTH 583 0
DWIDTH 7 0
BBX 6 16 1 -4
BITMAP
00
00
00
7C
60
60
78
1C
0C
0C
8C
78
00
00
00
00
ENDCHAR

STARTCHAR Six
ENCODING 54
SWIDTH 583 0
DWIDTH 7 0
BBX 6 16 1 -4
BITMAP
00
00
00
38
60
C0
F8
CC
CC
CC
CC
78
00
00
00
00
ENDCHAR

STARTCHAR Seven
ENCODING 55
SWIDTH 583 0
DWIDTH 7 0
BBX 6 16 1 -4
BITMAP
00
00
00
FC
FC
88
08
10
10
20
20
20
00
00
00
00
ENDCHAR

STARTCHAR Eight
ENCODING 56
SWIDTH 583 0
DWIDTH 7 0
BBX 6 16 1 -4
BITMAP
00
00
00
78
CC
CC
CC
78
CC
CC
CC
78
00
00
00
00
ENDCHAR

STARTCHAR Nine
ENCODING 57
SWIDTH 583 0
DWIDTH 7 0
BBX 6 16 1 -4
BITMAP
00
00
00
78
CC
CC
CC
CC
7C
0C
18
70
00
00
00
00
ENDCHAR

STARTCHAR Colon
ENCODING 58
SWIDTH 333 0
DWIDTH 4 0
BBX 2 16 1 -4
BITMAP
00
00
00
00
00
00
C0
C0
00
00
C0
C0
00
00
00
00
ENDCHAR

STARTCHAR Simicolon
ENCODING 59
SWIDTH 333 0
DWIDTH 4 0
BBX 3 16 0 -4
BITMAP
00
00
00
00
00
00
60
60
00
00
60
60
60
C0
80
00
ENDCHAR

STARTCHAR LessThanSign
ENCODING 60
SWIDTH 666 0
DWIDTH 8 0
BBX 7 16 1 -4
BITMAP
00
00
00
00
06
1E
78
E0
78
1E
06
00
00
00
00
00
ENDCHAR

STARTCHAR EqualsSign
ENCODING 61
SWIDTH 666 0
DWIDTH 8 0
BBX 7 16 1 -4
BITMAP
00
00
00
00
00
FE
FE
00
FE
FE
00
00
00
00
00
00
ENDCHAR

STARTCHAR GreatrThanSign
ENCODING 62
SWIDTH 666 0
DWIDTH 8 0
BBX 7 16 1 -4
BITMAP
00
00
00
00
C0
F0
3C
0E
3C
F0
C0
00
00
00
00
00
ENDCHAR

STARTCHAR QuestionMark
ENCODING 63
SWIDTH 666 0
DWIDTH 8 0
BBX 7 16 1 -4
BITMAP
00
00
7C
CE
CE
0E
1C
38
38
00
10
38
38
10
00
00
ENDCHAR

STARTCHAR CommerclAtSign
ENCODING 64
SWIDTH 750 0
DWIDTH 9 0
BBX 8 16 1 -4
BITMAP
00
00
3C
66
43
CF
DB
DB
DB
CD
40
66
3C
00
00
00
ENDCHAR

STARTCHAR A
ENCODING 65
SWIDTH 750 0
DWIDTH 9 0
BBX 9 16 0 -4
BITMAP
0000
0000
0000
0800
0800
1C00
1400
2600
3E00
4300
4300
E780
0000
0000
0000
0000
ENDCHAR

STARTCHAR B
ENCODING 66
SWIDTH 666 0
DWIDTH 8 0
BBX 7 16 1 -4
BITMAP
00
00
00
F8
6C
64
64
7C
66
62
66
FC
00
00
00
00
ENDCHAR

STARTCHAR C
ENCODING 67
SWIDTH 583 0
DWIDTH 7 0
BBX 6 16 1 -4
BITMAP
00
00
00
3C
64
C0
C0
C0
C0
C0
64
38
00
00
00
00
ENDCHAR

STARTCHAR D
ENCODING 68
SWIDTH 750 0
DWIDTH 9 0
BBX 7 16 1 -4
BITMAP
00
00
00
F8
6C
66
66
66
66
66
6C
F8
00
00
00
00
ENDCHAR

STARTCHAR E
ENCODING 69
SWIDTH 666 0
DWIDTH 8 0
BBX 6 16 1 -4
BITMAP
00
00
00
FC
64
60
68
78
68
60
64
FC
00
00
00
00
ENDCHAR

STARTCHAR F
ENCODING 70
SWIDTH 583 0
DWIDTH 7 0
BBX 6 16 1 -4
BITMAP
00
00
00
FC
64
60
68
78
68
60
60
F0
00
00
00
00
ENDCHAR

STARTCHAR G
ENCODING 71
SWIDTH 750 0
DWIDTH 9 0
BBX 8 16 1 -4
BITMAP
00
00
00
3E
62
C0
C0
C0
CF
C6
66
3C
00
00
00
00
ENDCHAR

STARTCHAR H
ENCODING 72
SWIDTH 750 0
DWIDTH 9 0
BBX 8 16 1 -4
BITMAP
00
00
00
F7
66
66
66
7E
66
66
66
F7
00
00
00
00
ENDCHAR

STARTCHAR I
ENCODING 73
SWIDTH 416 0
DWIDTH 5 0
BBX 4 16 1 -4
BITMAP
00
00
00
F0
60
60
60
60
60
60
60
F0
00
00
00
00
ENDCHAR

STARTCHAR J
ENCODING 74
SWIDTH 583 0
DWIDTH 7 0
BBX 6 16 1 -4
BITMAP
00
00
00
3C
18
18
18
18
18
98
98
70
00
00
00
00
ENDCHAR

STARTCHAR K
ENCODING 75
SWIDTH 666 0
DWIDTH 8 0
BBX 7 16 1 -4
BITMAP
00
00
00
E6
64
68
78
78
6C
6C
66
E6
00
00
00
00
ENDCHAR

STARTCHAR L
ENCODING 76
SWIDTH 666 0
DWIDTH 8 0
BBX 7 16 1 -4
BITMAP
00
00
00
F0
60
60
60
60
60
60
62
FE
00
00
00
00
ENDCHAR

STARTCHAR M
ENCODING 77
SWIDTH 833 0
DWIDTH 10 0
BBX 9 16 1 -4
BITMAP
0000
0000
0000
E380
7700
7700
7F00
6B00
6B00
6300
6300
F780
0000
0000
0000
0000
ENDCHAR

STARTCHAR N
ENCODING 78
SWIDTH 666 0
DWIDTH 8 0
BBX 7 16 1 -4
BITMAP
00
00
00
CE
64
64
74
74
5C
5C
4C
EC
00
00
00
00
ENDCHAR

STARTCHAR O
ENCODING 79
SWIDTH 750 0
DWIDTH 9 0
BBX 7 16 1 -4
BITMAP
00
00
00
38
6C
C6
C6
C6
C6
C6
6C
38
00
00
00
00
ENDCHAR

STARTCHAR P
ENCODING 80
SWIDTH 666 0
DWIDTH 8 0
BBX 7 16 1 -4
BITMAP
00
00
00
FC
66
66
66
7C
60
60
60
F0
00
00
00
00
ENDCHAR

STARTCHAR Q
ENCODING 81
SWIDTH 750 0
DWIDTH 9 0
BBX 7 16 1 -4
BITMAP
00
00
00
38
6C
C6
C6
C6
C6
C6
7C
38
18
0C
02
00
ENDCHAR

STARTCHAR R
ENCODING 82
SWIDTH 666 0
DWIDTH 8 0
BBX 7 16 1 -4
BITMAP
00
00
00
F8
6C
64
6C
78
68
6C
64
E6
00
00
00
00
ENDCHAR

STARTCHAR S
ENCODING 83
SWIDTH 583 0
DWIDTH 7 0
BBX 5 16 1 -4
BITMAP
00
00
00
78
88
C0
E0
70
38
18
88
F0
00
00
00
00
ENDCHAR

STARTCHAR T
ENCODING 84
SWIDTH 750 0
DWIDTH 9 0
BBX 8 16 1 -4
BITMAP
00
00
00
FF
99
18
18
18
18
18
18
3C
00
00
00
00
ENDCHAR

STARTCHAR U
ENCODING 85
SWIDTH 750 0
DWIDTH 9 0
BBX 8 16 1 -4
BITMAP
00
00
00
F7
62
62
62
62
62
62
62
3C
00
00
00
00
ENDCHAR

STARTCHAR V
ENCODING 86
SWIDTH 750 0
DWIDTH 9 0
BBX 8 16 1 -4
BITMAP
00
00
00
F7
62
66
34
34
3C
18
18
18
00
00
00
00
ENDCHAR

STARTCHAR W
ENCODING 87
SWIDTH 1000 0
DWIDTH 12 0
BBX 12 16 0 -4
BITMAP
0000
0000
0000
F4E0
6640
6640
6E80
3B80
3B80
3300
1100
1100
0000
0000
0000
0000
ENDCHAR

STARTCHAR X
ENCODING 88
SWIDTH 750 0
DWIDTH 9 0
BBX 8 16 1 -4
BITMAP
00
00
00
F7
62
34
34
18
2C
2C
46
EF
00
00
00
00
ENDCHAR

STARTCHAR Y
ENCODING 89
SWIDTH 666 0
DWIDTH 8 0
BBX 8 16 0 -4
BITMAP
00
00
00
F7
62
66
34
3C
18
18
18
3C
00
00
00
00
ENDCHAR

STARTCHAR Z
ENCODING 90
SWIDTH 583 0
DWIDTH 7 0
BBX 6 16 1 -4
BITMAP
00
00
00
FC
8C
18
18
30
60
60
C4
FC
00
00
00
00
ENDCHAR

STARTCHAR OpenBracket
ENCODING 91
SWIDTH 583 0
DWIDTH 7 0
BBX 5 16 2 -4
BITMAP
00
F8
E0
E0
E0
E0
E0
E0
E0
E0
E0
E0
E0
F8
00
00
ENDCHAR

STARTCHAR BackSlash
ENCODING 92
SWIDTH 583 0
DWIDTH 7 0
BBX 7 16 0 -4
BITMAP
00
80
C0
40
60
20
30
10
18
08
0C
04
06
02
00
00
ENDCHAR

STARTCHAR CloseBracket
ENCODING 93
SWIDTH 583 0
DWIDTH 7 0
BBX 5 16 1 -4
BITMAP
00
F8
38
38
38
38
38
38
38
38
38
38
38
F8
00
00
ENDCHAR

STARTCHAR Circumflex
ENCODING 94
SWIDTH 666 0
DWIDTH 8 0
BBX 6 16 1 -4
BITMAP
00
00
00
30
78
CC
00
00
00
00
00
00
00
00
00
00
ENDCHAR

STARTCHAR Underscore
ENCODING 95
SWIDTH 500 0
DWIDTH 6 0
BBX 6 16 0 -4
BITMAP
00
00
00
00
00
00
00
00
00
00
00
00
FC
00
00
00
ENDCHAR

STARTCHAR SingleOpenQuot
ENCODING 96
SWIDTH 416 0
DWIDTH 5 0
BBX 3 16 1 -4
BITMAP
00
00
20
60
C0
C0
C0
00
00
00
00
00
00
00
00
00
ENDCHAR

STARTCHAR a
ENCODING 97
SWIDTH 666 0
DWIDTH 8 0
BBX 7 16 1 -4
BITMAP
00
00
00
00
00
00
78
0C
7C
CC
CC
76
00
00
00
00
ENDCHAR

STARTCHAR b
ENCODING 98
SWIDTH 750 0
DWIDTH 9 0
BBX 7 16 1 -4
BITMAP
00
00
00
E0
60
60
7C
66
66
66
66
7C
00
00
00
00
ENDCHAR

STARTCHAR c
ENCODING 99
SWIDTH 666 0
DWIDTH 8 0
BBX 6 16 1 -4
BITMAP
00
00
00
00
00
00
7C
C4
C0
C0
C4
78
00
00
00
00
ENDCHAR

STARTCHAR d
ENCODING 100
SWIDTH 666 0
DWIDTH 8 0
BBX 7 16 1 -4
BITMAP
00
00
00
1C
0C
0C
7C
CC
CC
CC
CC
7E
00
00
00
00
ENDCHAR

STARTCHAR e
ENCODING 101
SWIDTH 666 0
DWIDTH 8 0
BBX 6 16 1 -4
BITMAP
00
00
00
00
00
00
78
CC
FC
C0
C4
78
00
00
00
00
ENDCHAR

STARTCHAR f
ENCODING 102
SWIDTH 416 0
DWIDTH 5 0
BBX 4 16 1 -4
BITMAP
00
00
00
30
60
60
F0
60
60
60
60
F0
00
00
00
00
ENDCHAR

STARTCHAR g
ENCODING 103
SWIDTH 666 0
DWIDTH 8 0
BBX 7 16 1 -4
BITMAP
00
00
00
00
00
00
7A
CC
CC
78
C0
7C
C6
C6
7C
00
ENDCHAR

STARTCHAR h
ENCODING 104
SWIDTH 750 0
DWIDTH 9 0
BBX 8 16 1 -4
BITMAP
00
00
00
E0
60
60
7C
66
66
66
66
EF
00
00
00
00
ENDCHAR

STARTCHAR i
ENCODING 105
SWIDTH 416 0
DWIDTH 5 0
BBX 4 16 1 -4
BITMAP
00
00
00
40
40
00
E0
60
60
60
60
F0
00
00
00
00
ENDCHAR

STARTCHAR j
ENCODING 106
SWIDTH 416 0
DWIDTH 5 0
BBX 4 16 0 -4
BITMAP
00
00
00
20
20
00
70
30
30
30
30
30
30
B0
60
00
ENDCHAR

STARTCHAR k
ENCODING 107
SWIDTH 666 0
DWIDTH 8 0
BBX 7 16 1 -4
BITMAP
00
00
00
E0
60
60
66
6C
78
6C
64
E6
00
00
00
00
ENDCHAR

STARTCHAR l
ENCODING 108
SWIDTH 416 0
DWIDTH 5 0
BBX 4 16 1 -4
BITMAP
00
00
00
E0
60
60
60
60
60
60
60
F0
00
00
00
00
ENDCHAR

STARTCHAR m
ENCODING 109
SWIDTH 916 0
DWIDTH 11 0
BBX 10 16 1 -4
BITMAP
0000
0000
0000
0000
0000
0000
DB00
6D80
6D80
6D80
6D80
EDC0
0000
0000
0000
0000
ENDCHAR

STARTCHAR n
ENCODING 110
SWIDTH 750 0
DWIDTH 9 0
BBX 8 16 1 -4
BITMAP
00
00
00
00
00
00
EC
76
66
66
66
EF
00
00
00
00
ENDCHAR

STARTCHAR o
ENCODING 111
SWIDTH 583 0
DWIDTH 7 0
BBX 6 16 1 -4
BITMAP
00
00
00
00
00
00
78
CC
CC
CC
CC
78
00
00
00
00
ENDCHAR

STARTCHAR p
ENCODING 112
SWIDTH 750 0
DWIDTH 9 0
BBX 7 16 1 -4
BITMAP
00
00
00
00
00
00
FC
66
66
66
66
7C
60
60
F0
00
ENDCHAR

STARTCHAR q
ENCODING 113
SWIDTH 666 0
DWIDTH 8 0
BBX 7 16 1 -4
BITMAP
00
00
00
00
00
00
74
CC
CC
CC
CC
7C
0C
0C
1E
00
ENDCHAR

STARTCHAR r
ENCODING 114
SWIDTH 583 0
DWIDTH 7 0
BBX 6 16 1 -4
BITMAP
00
00
00
00
00
00
DC
74
60
60
60
F0
00
00
00
00
ENDCHAR

STARTCHAR s
ENCODING 115
SWIDTH 666 0
DWIDTH 8 0
BBX 6 16 1 -4
BITMAP
00
00
00
00
00
00
7C
C4
F0
3C
8C
F8
00
00
00
00
ENDCHAR

STARTCHAR t
ENCODING 116
SWIDTH 500 0
DWIDTH 6 0
BBX 5 16 1 -4
BITMAP
00
00
00
00
60
60
F0
60
60
60
60
38
00
00
00
00
ENDCHAR

STARTCHAR u
ENCODING 117
SWIDTH 750 0
DWIDTH 9 0
BBX 8 16 1 -4
BITMAP
00
00
00
00
00
00
EE
66
66
66
66
3B
00
00
00
00
ENDCHAR

STARTCHAR v
ENCODING 118
SWIDTH 750 0
DWIDTH 9 0
BBX 8 16 1 -4
BITMAP
00
00
00
00
00
00
F7
62
34
34
18
18
00
00
00
00
ENDCHAR

STARTCHAR w
ENCODING 119
SWIDTH 833 0
DWIDTH 10 0
BBX 10 16 0 -4
BITMAP
0000
0000
0000
0000
0000
0000
E1C0
4880
6D00
3F00
3600
1200
0000
0000
0000
0000
ENDCHAR

STARTCHAR x
ENCODING 120
SWIDTH 666 0
DWIDTH 8 0
BBX 7 16 1 -4
BITMAP
00
00
00
00
00
00
CE
64
38
38
4C
E6
00
00
00
00
ENDCHAR

STARTCHAR y
ENCODING 121
SWIDTH 666 0
DWIDTH 8 0
BBX 8 16 0 -4
BITMAP
00
00
00
00
00
00
F7
62
32
34
1C
18
08
50
60
00
ENDCHAR

STARTCHAR z
ENCODING 122
SWIDTH 583 0
DWIDTH 7 0
BBX 6 16 1 -4
BITMAP
00
00
00
00
00
00
FC
98
30
60
C4
FC
00
00
00
00
ENDCHAR

STARTCHAR OpenBrace
ENCODING 123
SWIDTH 666 0
DWIDTH 8 0
BBX 7 16 1 -4
BITMAP
00
1E
38
38
38
38
30
E0
30
38
38
38
38
1E
00
00
ENDCHAR

STARTCHAR LongVertMark
ENCODING 124
SWIDTH 416 0
DWIDTH 5 0
BBX 2 16 2 -4
BITMAP
00
00
C0
C0
C0
C0
C0
C0
C0
C0
C0
C0
C0
00
00
00
ENDCHAR

STARTCHAR CloseBrace
ENCODING 125
SWIDTH 666 0
DWIDTH 8 0
BBX 7 16 1 -4
BITMAP
00
F0
38
38
38
38
18
0E
18
38
38
38
38
F0
00
00
ENDCHAR

STARTCHAR OneWavyLine
ENCODING 126
SWIDTH 750 0
DWIDTH 9 0
BBX 8 16 1 -4
BITMAP
00
00
00
00
00
30
79
9E
0C
00
00
00
00
00
00
00
ENDCHAR

STARTCHAR MediumShading
ENCODING 127
SWIDTH 1000 0
DWIDTH 12 0
BBX 12 16 0 -4
BITMAP
CCC0
CCC0
3330
3330
CCC0
CCC0
3330
3330
CCC0
CCC0
3330
3330
CCC0
CCC0
3330
3330
ENDCHAR

STARTCHAR InvExclamation
ENCODING 161
SWIDTH 416 0
DWIDTH 5 0
BBX 2 16 2 -4
BITMAP
00
00
00
C0
C0
00
00
C0
C0
C0
C0
C0
C0
C0
00
00
ENDCHAR

STARTCHAR CentSign
ENCODING 162
SWIDTH 583 0
DWIDTH 7 0
BBX 5 16 1 -4
BITMAP
00
00
00
20
20
78
C8
C0
C0
C8
70
20
20
00
00
00
ENDCHAR

STARTCHAR SterlingSign
ENCODING 163
SWIDTH 666 0
DWIDTH 8 0
BBX 7 16 1 -4
BITMAP
00
00
00
38
64
60
F8
60
F8
60
72
DC
00
00
00
00
ENDCHAR

STARTCHAR CurrencySymbol
ENCODING 164
SWIDTH 666 0
DWIDTH 8 0
BBX 7 16 1 -4
BITMAP
00
00
00
44
FE
6C
44
6C
FE
44
00
00
00
00
00
00
ENDCHAR

STARTCHAR Yensign
ENCODING 165
SWIDTH 666 0
DWIDTH 8 0
BBX 8 16 0 -4
BITMAP
00
00
00
F7
62
34
34
FF
18
FF
18
3C
00
00
00
00
ENDCHAR

STARTCHAR BrokenVertMark
ENCODING 166
SWIDTH 416 0
DWIDTH 5 0
BBX 2 16 2 -4
BITMAP
00
00
C0
C0
C0
C0
C0
00
C0
C0
C0
C0
C0
00
00
00
ENDCHAR

STARTCHAR SectionMark
ENCODING 167
SWIDTH 500 0
DWIDTH 6 0
BBX 5 16 1 -4
BITMAP
00
00
70
C8
E0
70
B8
98
C8
E8
70
38
98
70
00
00
ENDCHAR

STARTCHAR diaeresisAccnt
ENCODING 168
SWIDTH 500 0
DWIDTH 6 0
BBX 4 16 1 -4
BITMAP
00
00
00
90
90
00
00
00
00
00
00
00
00
00
00
00
ENDCHAR

STARTCHAR CopyrightSign
ENCODING 169
SWIDTH 750 0
DWIDTH 9 0
BBX 8 16 1 -4
BITMAP
00
00
00
3C
42
9D
B1
B1
9D
42
3C
00
00
00
00
00
ENDCHAR

STARTCHAR FemaleOrdinal
ENCODING 170
SWIDTH 583 0
DWIDTH 7 0
BBX 6 16 1 -4
BITMAP
00
00
70
18
78
98
7C
00
FC
00
00
00
00
00
00
00
ENDCHAR

STARTCHAR DblOpenAnglQut
ENCODING 171
SWIDTH 750 0
DWIDTH 9 0
BBX 8 16 1 -4
BITMAP
00
00
00
00
11
33
66
EE
66
33
11
00
00
00
00
00
ENDCHAR

STARTCHAR NotSign
ENCODING 172
SWIDTH 666 0
DWIDTH 8 0
BBX 7 16 1 -4
BITMAP
00
00
00
00
00
00
FE
FE
06
06
00
00
00
00
00
00
ENDCHAR

STARTCHAR SoftHyphen
ENCODING 173
SWIDTH 666 0
DWIDTH 8 0
BBX 7 16 1 -4
BITMAP
00
00
00
00
00
00
FE
FE
00
00
00
00
00
00
00
00
ENDCHAR

STARTCHAR RegisTradeMark
ENCODING 174
SWIDTH 750 0
DWIDTH 9 0
BBX 8 16 1 -4
BITMAP
00
00
00
3C
42
B9
AD
B9
AD
A5
42
3C
00
00
00
00
ENDCHAR

STARTCHAR macronAccent
ENCODING 175
SWIDTH 666 0
DWIDTH 8 0
BBX 7 16 1 -4
BITMAP
00
00
00
FE
FE
00
00
00
00
00
00
00
00
00
00
00
ENDCHAR

STARTCHAR DegreeSign
ENCODING 176
SWIDTH 500 0
DWIDTH 6 0
BBX 5 16 1 -4
BITMAP
00
00
00
70
98
98
70
00
00
00
00
00
00
00
00
00
ENDCHAR

STARTCHAR PlusOverMinus
ENCODING 177
SWIDTH 666 0
DWIDTH 8 0
BBX 6 16 1 -4
BITMAP
00
00
00
30
30
FC
30
30
00
FC
00
00
00
00
00
00
ENDCHAR

STARTCHAR SupNumberTwo
ENCODING 178
SWIDTH 583 0
DWIDTH 7 0
BBX 5 16 1 -4
BITMAP
00
00
70
D8
18
30
60
C0
F8
00
00
00
00
00
00
00
ENDCHAR

STARTCHAR SupNumberThree
ENCODING 179
SWIDTH 583 0
DWIDTH 7 0
BBX 5 16 1 -4
BITMAP
00
00
70
98
18
70
18
98
70
00
00
00
00
00
00
00
ENDCHAR

STARTCHAR acuteAccent
ENCODING 180
SWIDTH 583 0
DWIDTH 7 0
BBX 4 16 2 -4
BITMAP
00
00
00
30
60
C0
00
00
00
00
00
00
00
00
00
00
ENDCHAR

STARTCHAR muGreek
ENCODING 181
SWIDTH 666 0
DWIDTH 8 0
BBX 7 16 1 -4
BITMAP
00
00
00
00
00
00
36
36
36
6C
6C
5A
C0
C0
00
00
ENDCHAR

STARTCHAR ParagraphSign
ENCODING 182
SWIDTH 666 0
DWIDTH 8 0
BBX 7 16 1 -4
BITMAP
00
00
00
7E
F4
F4
F4
74
14
14
14
14
14
00
00
00
ENDCHAR

STARTCHAR middleDot
ENCODING 183
SWIDTH 250 0
DWIDTH 3 0
BBX 2 16 1 -4
BITMAP
00
00
00
00
00
00
C0
C0
00
00
00
00
00
00
00
00
ENDCHAR

STARTCHAR cedilla
ENCODING 184
SWIDTH 583 0
DWIDTH 7 0
BBX 4 16 2 -4
BITMAP
00
00
00
00
00
00
00
00
00
00
00
00
20
30
E0
00
ENDCHAR

STARTCHAR SupNumberOne
ENCODING 185
SWIDTH 583 0
DWIDTH 7 0
BBX 4 16 2 -4
BITMAP
00
00
30
70
B0
30
30
30
00
00
00
00
00
00
00
00
ENDCHAR

STARTCHAR MaleOrdinal
ENCODING 186
SWIDTH 583 0
DWIDTH 7 0
BBX 6 16 1 -4
BITMAP
00
00
78
CC
CC
CC
78
00
FC
00
00
00
00
00
00
00
ENDCHAR

STARTCHAR DblClosAnglQut
ENCODING 187
SWIDTH 750 0
DWIDTH 9 0
BBX 8 16 1 -4
BITMAP
00
00
00
00
88
CC
66
77
66
CC
88
00
00
00
00
00
ENDCHAR

STARTCHAR FracOneFourth
ENCODING 188
SWIDTH 666 0
DWIDTH 8 0
BBX 8 16 0 -4
BITMAP
00
60
E0
61
62
64
68
10
28
48
92
16
36
3F
06
00
ENDCHAR

STARTCHAR FracOneHalf
ENCODING 189
SWIDTH 666 0
DWIDTH 8 0
BBX 8 16 0 -4
BITMAP
00
60
E0
61
62
64
68
10
2E
5B
83
06
0C
18
1F
00
ENDCHAR

STARTCHAR FracThreeFour
ENCODING 190
SWIDTH 750 0
DWIDTH 9 0
BBX 8 16 1 -4
BITMAP
00
70
18
70
19
9A
74
08
18
28
52
96
36
3F
06
00
ENDCHAR

STARTCHAR InvertQuestion
ENCODING 191
SWIDTH 666 0
DWIDTH 8 0
BBX 7 16 1 -4
BITMAP
00
00
10
38
38
10
00
38
38
70
E0
E6
E6
7C
00
00
ENDCHAR

STARTCHAR Agrave
ENCODING 192
SWIDTH 750 0
DWIDTH 9 0
BBX 9 16 0 -4
BITMAP
3000
1800
0400
0800
0800
1C00
1400
2600
3E00
4300
4300
E780
0000
0000
0000
0000
ENDCHAR

STARTCHAR Aacute
ENCODING 193
SWIDTH 750 0
DWIDTH 9 0
BBX 9 16 0 -4
BITMAP
0600
0C00
1000
0800
0800
1C00
1400
2600
3E00
4300
4300
E780
0000
0000
0000
0000
ENDCHAR

STARTCHAR Acircumflex
ENCODING 194
SWIDTH 750 0
DWIDTH 9 0
BBX 9 16 0 -4
BITMAP
0800
1C00
2200
0800
0800
1C00
1400
2600
3E00
4300
4300
E780
0000
0000
0000
0000
ENDCHAR

STARTCHAR Atilde
ENCODING 195
SWIDTH 750 0
DWIDTH 9 0
BBX 9 16 0 -4
BITMAP
1C00
2E80
0700
0800
0800
1C00
1400
2600
3E00
4300
4300
E780
0000
0000
0000
0000
ENDCHAR

STARTCHAR Adiaeresis
ENCODING 196
SWIDTH 750 0
DWIDTH 9 0
BBX 9 16 0 -4
BITMAP
1200
1200
0000
0800
0800
1C00
1400
2600
3E00
4300
4300
E780
0000
0000
0000
0000
ENDCHAR

STARTCHAR Abolle
ENCODING 197
SWIDTH 750 0
DWIDTH 9 0
BBX 9 16 0 -4
BITMAP
0C00
1200
1200
0C00
0800
1C00
1400
2600
3E00
4300
4300
E780
0000
0000
0000
0000
ENDCHAR

STARTCHAR AEdiphthong
ENCODING 198
SWIDTH 833 0
DWIDTH 10 0
BBX 10 16 0 -4
BITMAP
0000
0000
0000
1FC0
0E40
1600
1680
2780
3E80
4600
4640
E7C0
0000
0000
0000
0000
ENDCHAR

STARTCHAR Ccedilla
ENCODING 199
SWIDTH 583 0
DWIDTH 7 0
BBX 6 16 1 -4
BITMAP
00
00
00
3C
64
C0
C0
C0
C0
C0
64
38
10
18
70
00
ENDCHAR

STARTCHAR Egrave
ENCODING 200
SWIDTH 583 0
DWIDTH 7 0
BBX 6 16 1 -4
BITMAP
60
30
00
FC
64
60
68
78
68
60
64
FC
00
00
00
00
ENDCHAR

STARTCHAR Eacute
ENCODING 201
SWIDTH 583 0
DWIDTH 7 0
BBX 6 16 1 -4
BITMAP
0C
18
00
FC
64
60
68
78
68
60
64
FC
00
00
00
00
ENDCHAR

STARTCHAR Ecircumflex
ENCODING 202
SWIDTH 583 0
DWIDTH 7 0
BBX 6 16 1 -4
BITMAP
38
44
00
FC
64
60
68
78
68
60
64
FC
00
00
00
00
ENDCHAR

STARTCHAR Ediaeresis
ENCODING 203
SWIDTH 583 0
DWIDTH 7 0
BBX 6 16 1 -4
BITMAP
48
48
00
FC
64
60
68
78
68
60
64
FC
00
00
00
00
ENDCHAR

STARTCHAR Igrave
ENCODING 204
SWIDTH 416 0
DWIDTH 5 0
BBX 5 16 0 -4
BITMAP
E0
30
00
78
30
30
30
30
30
30
30
78
00
00
00
00
ENDCHAR

STARTCHAR Iacute
ENCODING 205
SWIDTH 416 0
DWIDTH 5 0
BBX 4 16 1 -4
BITMAP
30
60
00
F0
60
60
60
60
60
60
60
F0
00
00
00
00
ENDCHAR

STARTCHAR Icircumflex
ENCODING 206
SWIDTH 416 0
DWIDTH 5 0
BBX 4 16 1 -4
BITMAP
60
90
00
F0
60
60
60
60
60
60
60
F0
00
00
00
00
ENDCHAR

STARTCHAR Idiaeresis
ENCODING 207
SWIDTH 416 0
DWIDTH 5 0
BBX 4 16 1 -4
BITMAP
90
90
00
F0
60
60
60
60
60
60
60
F0
00
00
00
00
ENDCHAR

STARTCHAR Eth
ENCODING 208
SWIDTH 750 0
DWIDTH 9 0
BBX 7 16 1 -4
BITMAP
00
00
00
F8
6C
66
66
F6
66
66
6C
F8
00
00
00
00
ENDCHAR

STARTCHAR Ntilde
ENCODING 209
SWIDTH 666 0
DWIDTH 8 0
BBX 7 16 1 -4
BITMAP
72
9C
00
CE
64
64
74
74
5C
5C
4C
EC
00
00
00
00
ENDCHAR

STARTCHAR Ograve
ENCODING 210
SWIDTH 750 0
DWIDTH 9 0
BBX 7 16 1 -4
BITMAP
60
30
00
38
6C
C6
C6
C6
C6
C6
6C
38
00
00
00
00
ENDCHAR

STARTCHAR Oacute
ENCODING 211
SWIDTH 750 0
DWIDTH 9 0
BBX 7 16 1 -4
BITMAP
0C
18
00
38
6C
C6
C6
C6
C6
C6
6C
38
00
00
00
00
ENDCHAR

STARTCHAR Ocircumflex
ENCODING 212
SWIDTH 750 0
DWIDTH 9 0
BBX 7 16 1 -4
BITMAP
38
44
00
38
6C
C6
C6
C6
C6
C6
6C
38
00
00
00
00
ENDCHAR

STARTCHAR Otilde
ENCODING 213
SWIDTH 750 0
DWIDTH 9 0
BBX 7 16 1 -4
BITMAP
72
9C
00
38
6C
C6
C6
C6
C6
C6
6C
38
00
00
00
00
ENDCHAR

STARTCHAR Odiaeresis
ENCODING 214
SWIDTH 750 0
DWIDTH 9 0
BBX 7 16 1 -4
BITMAP
24
24
00
38
6C
C6
C6
C6
C6
C6
6C
38
00
00
00
00
ENDCHAR

STARTCHAR MultiplySign
ENCODING 215
SWIDTH 666 0
DWIDTH 8 0
BBX 7 16 1 -4
BITMAP
00
00
00
00
C6
6C
38
38
6C
C6
00
00
00
00
00
00
ENDCHAR

STARTCHAR Ooblique
ENCODING 216
SWIDTH 750 0
DWIDTH 9 0
BBX 7 16 1 -4
BITMAP
00
00
02
3A
6C
CE
D6
D6
D6
E6
6C
B8
80
00
00
00
ENDCHAR

STARTCHAR Ugrave
ENCODING 217
SWIDTH 750 0
DWIDTH 9 0
BBX 8 16 1 -4
BITMAP
30
18
00
F7
62
62
62
62
62
62
62
3C
00
00
00
00
ENDCHAR

STARTCHAR Uacute
ENCODING 218
SWIDTH 750 0
DWIDTH 9 0
BBX 8 16 1 -4
BITMAP
0C
18
00
F7
62
62
62
62
62
62
62
3C
00
00
00
00
ENDCHAR

STARTCHAR Ucircumflex
ENCODING 219
SWIDTH 750 0
DWIDTH 9 0
BBX 8 16 1 -4
BITMAP
18
24
00
F7
62
62
62
62
62
62
62
3C
00
00
00
00
ENDCHAR

STARTCHAR Udiaeresis
ENCODING 220
SWIDTH 750 0
DWIDTH 9 0
BBX 8 16 1 -4
BITMAP
24
24
00
F7
62
62
62
62
62
62
62
3C
00
00
00
00
ENDCHAR

STARTCHAR Yacute
ENCODING 221
SWIDTH 666 0
DWIDTH 8 0
BBX 8 16 0 -4
BITMAP
06
0C
00
F7
62
34
34
18
18
18
18
3C
00
00
00
00
ENDCHAR

STARTCHAR Thorn
ENCODING 222
SWIDTH 750 0
DWIDTH 9 0
BBX 7 16 1 -4
BITMAP
00
00
00
F0
60
7C
66
66
66
7C
60
F0
00
00
00
00
ENDCHAR

STARTCHAR EsZetLigature
ENCODING 223
SWIDTH 666 0
DWIDTH 8 0
BBX 7 16 1 -4
BITMAP
00
00
38
6C
64
64
6C
6C
66
66
66
6C
60
E0
00
00
ENDCHAR

STARTCHAR agrave
ENCODING 224
SWIDTH 666 0
DWIDTH 8 0
BBX 7 16 1 -4
BITMAP
00
00
C0
60
10
00
78
0C
7C
CC
CC
76
00
00
00
00
ENDCHAR

STARTCHAR aacute
ENCODING 225
SWIDTH 666 0
DWIDTH 8 0
BBX 7 16 1 -4
BITMAP
00
00
0C
18
20
00
78
0C
7C
CC
CC
76
00
00
00
00
ENDCHAR

STARTCHAR acircumflex
ENCODING 226
SWIDTH 666 0
DWIDTH 8 0
BBX 7 16 1 -4
BITMAP
00
00
10
38
44
00
78
0C
7C
CC
CC
76
00
00
00
00
ENDCHAR

STARTCHAR atilde
ENCODING 227
SWIDTH 666 0
DWIDTH 8 0
BBX 7 16 1 -4
BITMAP
00
00
70
BA
1C
00
78
0C
7C
CC
CC
76
00
00
00
00
ENDCHAR

STARTCHAR adiaeresis
ENCODING 228
SWIDTH 666 0
DWIDTH 8 0
BBX 7 16 1 -4
BITMAP
00
00
00
48
48
00
78
0C
7C
CC
CC
76
00
00
00
00
ENDCHAR

STARTCHAR abolle
ENCODING 229
SWIDTH 666 0
DWIDTH 8 0
BBX 7 16 1 -4
BITMAP
00
30
48
48
30
00
78
0C
7C
CC
CC
76
00
00
00
00
ENDCHAR

STARTCHAR aedihthong
ENCODING 230
SWIDTH 1000 0
DWIDTH 12 0
BBX 10 16 1 -4
BITMAP
0000
0000
0000
0000
0000
0000
7B80
0CC0
7FC0
CC00
CC40
7780
0000
0000
0000
0000
ENDCHAR

STARTCHAR ccedilla
ENCODING 231
SWIDTH 583 0
DWIDTH 7 0
BBX 5 16 1 -4
BITMAP
00
00
00
00
00
00
78
C8
C0
C0
C8
70
20
10
60
00
ENDCHAR

STARTCHAR egrave
ENCODING 232
SWIDTH 666 0
DWIDTH 8 0
BBX 6 16 1 -4
BITMAP
00
00
C0
60
10
00
78
CC
FC
C0
C4
78
00
00
00
00
ENDCHAR

STARTCHAR eacute
ENCODING 233
SWIDTH 666 0
DWIDTH 8 0
BBX 6 16 1 -4
BITMAP
00
00
0C
18
20
00
78
CC
FC
C0
C4
78
00
00
00
00
ENDCHAR

STARTCHAR ecircumflex
ENCODING 234
SWIDTH 666 0
DWIDTH 8 0
BBX 6 16 1 -4
BITMAP
00
00
10
38
44
00
78
CC
FC
C0
C4
78
00
00
00
00
ENDCHAR

STARTCHAR ediaeresis
ENCODING 235
SWIDTH 666 0
DWIDTH 8 0
BBX 6 16 1 -4
BITMAP
00
00
00
48
48
00
78
CC
FC
C0
C4
78
00
00
00
00
ENDCHAR

STARTCHAR igrave
ENCODING 236
SWIDTH 416 0
DWIDTH 5 0
BBX 5 16 0 -4
BITMAP
00
00
C0
60
10
00
70
30
30
30
30
78
00
00
00
00
ENDCHAR

STARTCHAR iacute
ENCODING 237
SWIDTH 416 0
DWIDTH 5 0
BBX 4 16 1 -4
BITMAP
00
00
30
60
80
00
E0
60
60
60
60
F0
00
00
00
00
ENDCHAR

STARTCHAR icircumflex
ENCODING 238
SWIDTH 416 0
DWIDTH 5 0
BBX 5 16 0 -4
BITMAP
00
00
20
70
88
00
70
30
30
30
30
78
00
00
00
00
ENDCHAR

STARTCHAR idiaeresis
ENCODING 239
SWIDTH 416 0
DWIDTH 5 0
BBX 4 16 1 -4
BITMAP
00
00
00
A0
A0
00
E0
60
60
60
60
F0
00
00
00
00
ENDCHAR

STARTCHAR ethIcelandic
ENCODING 240
SWIDTH 666 0
DWIDTH 8 0
BBX 6 16 1 -4
BITMAP
00
00
C8
78
70
D8
18
7C
CC
CC
CC
78
00
00
00
00
ENDCHAR

STARTCHAR ntilde
ENCODING 241
SWIDTH 750 0
DWIDTH 9 0
BBX 8 16 1 -4
BITMAP
00
00
70
BA
1C
00
DC
66
66
66
66
EF
00
00
00
00
ENDCHAR

STARTCHAR ograve
ENCODING 242
SWIDTH 666 0
DWIDTH 8 0
BBX 6 16 1 -4
BITMAP
00
00
C0
60
10
00
78
CC
CC
CC
CC
78
00
00
00
00
ENDCHAR

STARTCHAR oacute
ENCODING 243
SWIDTH 666 0
DWIDTH 8 0
BBX 6 16 1 -4
BITMAP
00
00
0C
18
20
00
78
CC
CC
CC
CC
78
00
00
00
00
ENDCHAR

STARTCHAR ocircumflex
ENCODING 244
SWIDTH 666 0
DWIDTH 8 0
BBX 6 16 1 -4
BITMAP
00
00
10
38
44
00
78
CC
CC
CC
CC
78
00
00
00
00
ENDCHAR

STARTCHAR otilde
ENCODING 245
SWIDTH 666 0
DWIDTH 8 0
BBX 7 16 1 -4
BITMAP
00
00
70
BA
1C
00
78
CC
CC
CC
CC
78
00
00
00
00
ENDCHAR

STARTCHAR odiaeresis
ENCODING 246
SWIDTH 666 0
DWIDTH 8 0
BBX 6 16 1 -4
BITMAP
00
00
00
48
48
00
78
CC
CC
CC
CC
78
00
00
00
00
ENDCHAR

STARTCHAR DivideSign
ENCODING 247
SWIDTH 666 0
DWIDTH 8 0
BBX 6 16 1 -4
BITMAP
00
00
00
30
30
00
FC
FC
00
30
30
00
00
00
00
00
ENDCHAR

STARTCHAR ooblique
ENCODING 248
SWIDTH 666 0
DWIDTH 8 0
BBX 6 16 1 -4
BITMAP
00
00
00
00
04
04
78
CC
DC
EC
CC
78
80
80
00
00
ENDCHAR

STARTCHAR ugrave
ENCODING 249
SWIDTH 750 0
DWIDTH 9 0
BBX 8 16 1 -4
BITMAP
00
00
C0
60
10
00
EE
66
66
66
66
3B
00
00
00
00
ENDCHAR

STARTCHAR uacute
ENCODING 250
SWIDTH 750 0
DWIDTH 9 0
BBX 8 16 1 -4
BITMAP
00
00
06
0C
10
00
EE
66
66
66
66
3B
00
00
00
00
ENDCHAR

STARTCHAR ucircumflex
ENCODING 251
SWIDTH 750 0
DWIDTH 9 0
BBX 8 16 1 -4
BITMAP
00
00
10
38
44
00
EE
66
66
66
66
3B
00
00
00
00
ENDCHAR

STARTCHAR udiaeresis
ENCODING 252
SWIDTH 750 0
DWIDTH 9 0
BBX 8 16 1 -4
BITMAP
00
00
00
24
24
00
EE
66
66
66
66
3B
00
00
00
00
ENDCHAR

STARTCHAR yacute
ENCODING 253
SWIDTH 666 0
DWIDTH 8 0
BBX 8 16 0 -4
BITMAP
00
00
03
06
0C
00
F7
62
32
34
18
18
08
50
60
00
ENDCHAR

STARTCHAR thorn
ENCODING 254
SWIDTH 750 0
DWIDTH 9 0
BBX 7 16 1 -4
BITMAP
00
00
00
E0
60
60
7C
66
66
66
66
7C
60
60
F0
00
ENDCHAR

STARTCHAR ydiaeresis
ENCODING 255
SWIDTH 666 0
DWIDTH 8 0
BBX 8 16 0 -4
BITMAP
00
00
00
24
24
00
F7
62
32
34
1C
18
08
50
60
00
ENDCHAR
ENDFONT
